<svg width="88" height="25" viewBox="0 0 88 25" fill="none" xmlns="http://www.w3.org/2000/svg">
<g filter="url(#filter0_d_10_3)">
<path d="M0.861 4.3H4.263C5.411 4.3 6.272 4.608 6.846 5.224C7.42 5.84 7.707 6.743 7.707 7.933V9.382C7.707 10.572 7.42 11.475 6.846 12.091C6.272 12.707 5.411 13.015 4.263 13.015H3.171V19H0.861V4.3ZM4.263 10.915C4.641 10.915 4.921 10.81 5.103 10.6C5.299 10.39 5.397 10.033 5.397 9.529V7.786C5.397 7.282 5.299 6.925 5.103 6.715C4.921 6.505 4.641 6.4 4.263 6.4H3.171V10.915H4.263ZM10.0083 4.3H13.1373L15.5313 19H13.2213L12.8013 16.081V16.123H10.1763L9.7563 19H7.6143L10.0083 4.3ZM12.5283 14.128L11.4993 6.862H11.4573L10.4493 14.128H12.5283ZM19.971 19.21C18.851 19.21 17.997 18.895 17.409 18.265C16.821 17.621 16.527 16.704 16.527 15.514V4.3H18.837V15.682C18.837 16.186 18.935 16.55 19.131 16.774C19.341 16.998 19.635 17.11 20.013 17.11C20.391 17.11 20.678 16.998 20.874 16.774C21.084 16.55 21.189 16.186 21.189 15.682V4.3H23.415V15.514C23.415 16.704 23.121 17.621 22.533 18.265C21.945 18.895 21.091 19.21 19.971 19.21ZM25.0602 4.3H27.3702V16.9H31.1712V19H25.0602V4.3ZM35.6423 4.3H39.0443C40.1923 4.3 41.0533 4.608 41.6273 5.224C42.2013 5.84 42.4883 6.743 42.4883 7.933V9.382C42.4883 10.572 42.2013 11.475 41.6273 12.091C41.0533 12.707 40.1923 13.015 39.0443 13.015H37.9523V19H35.6423V4.3ZM39.0443 10.915C39.4223 10.915 39.7023 10.81 39.8843 10.6C40.0803 10.39 40.1782 10.033 40.1782 9.529V7.786C40.1782 7.282 40.0803 6.925 39.8843 6.715C39.7023 6.505 39.4223 6.4 39.0443 6.4H37.9523V10.915H39.0443ZM43.7428 4.3H46.0528V19H43.7428V4.3ZM51.0379 19.21C49.9319 19.21 49.0849 18.895 48.4969 18.265C47.9229 17.635 47.6359 16.746 47.6359 15.598V7.702C47.6359 6.554 47.9229 5.665 48.4969 5.035C49.0849 4.405 49.9319 4.09 51.0379 4.09C52.1439 4.09 52.9839 4.405 53.5579 5.035C54.1459 5.665 54.4399 6.554 54.4399 7.702V9.256H52.2559V7.555C52.2559 6.645 51.8709 6.19 51.1009 6.19C50.3309 6.19 49.9459 6.645 49.9459 7.555V15.766C49.9459 16.662 50.3309 17.11 51.1009 17.11C51.8709 17.11 52.2559 16.662 52.2559 15.766V13.519H54.4399V15.598C54.4399 16.746 54.1459 17.635 53.5579 18.265C52.9839 18.895 52.1439 19.21 51.0379 19.21ZM57.6279 6.4H55.2129V4.3H62.3529V6.4H59.9379V19H57.6279V6.4ZM66.8314 19.21C65.7114 19.21 64.8574 18.895 64.2694 18.265C63.6814 17.621 63.3874 16.704 63.3874 15.514V4.3H65.6974V15.682C65.6974 16.186 65.7954 16.55 65.9914 16.774C66.2014 16.998 66.4954 17.11 66.8734 17.11C67.2514 17.11 67.5384 16.998 67.7344 16.774C67.9444 16.55 68.0494 16.186 68.0494 15.682V4.3H70.2754V15.514C70.2754 16.704 69.9814 17.621 69.3934 18.265C68.8054 18.895 67.9514 19.21 66.8314 19.21ZM71.9206 4.3H75.3436C76.5336 4.3 77.4016 4.58 77.9476 5.14C78.4936 5.686 78.7666 6.533 78.7666 7.681V8.584C78.7666 10.11 78.2626 11.076 77.2546 11.482V11.524C77.8146 11.692 78.2066 12.035 78.4306 12.553C78.6686 13.071 78.7876 13.764 78.7876 14.632V17.215C78.7876 17.635 78.8016 17.978 78.8296 18.244C78.8576 18.496 78.9276 18.748 79.0396 19H76.6876C76.6036 18.762 76.5476 18.538 76.5196 18.328C76.4916 18.118 76.4776 17.74 76.4776 17.194V14.506C76.4776 13.834 76.3656 13.365 76.1416 13.099C75.9316 12.833 75.5606 12.7 75.0286 12.7H74.2306V19H71.9206V4.3ZM75.0706 10.6C75.5326 10.6 75.8756 10.481 76.0996 10.243C76.3376 10.005 76.4566 9.606 76.4566 9.046V7.912C76.4566 7.38 76.3586 6.995 76.1626 6.757C75.9806 6.519 75.6866 6.4 75.2806 6.4H74.2306V10.6H75.0706ZM80.3903 4.3H86.6903V6.4H82.7003V10.285H85.8713V12.385H82.7003V16.9H86.6903V19H80.3903V4.3Z" fill="white"/>
</g>
<defs>
<filter id="filter0_d_10_3" x="-3.139" y="4.08984" width="93.8293" height="23.1201" filterUnits="userSpaceOnUse" color-interpolation-filters="sRGB">
<feFlood flood-opacity="0" result="BackgroundImageFix"/>
<feColorMatrix in="SourceAlpha" type="matrix" values="0 0 0 0 0 0 0 0 0 0 0 0 0 0 0 0 0 0 127 0" result="hardAlpha"/>
<feOffset dy="4"/>
<feGaussianBlur stdDeviation="2"/>
<feComposite in2="hardAlpha" operator="out"/>
<feColorMatrix type="matrix" values="0 0 0 0 0 0 0 0 0 0 0 0 0 0 0 0 0 0 0.25 0"/>
<feBlend mode="normal" in2="BackgroundImageFix" result="effect1_dropShadow_10_3"/>
<feBlend mode="normal" in="SourceGraphic" in2="effect1_dropShadow_10_3" result="shape"/>
</filter>
</defs>
</svg>
