<?xml version="1.0" standalone="no"?>
<!DOCTYPE svg PUBLIC "-//W3C//DTD SVG 20010904//EN"
 "http://www.w3.org/TR/2001/REC-SVG-20010904/DTD/svg10.dtd">
<svg version="1.0" xmlns="http://www.w3.org/2000/svg"
 width="300.000000pt" height="300.000000pt" viewBox="0 0 300.000000 300.000000"
 preserveAspectRatio="xMidYMid meet">
<metadata>
Created by potrace 1.14, written by Peter Selinger 2001-2017
</metadata>
<g transform="translate(0.000000,300.000000) scale(0.100000,-0.100000)"
fill="#000000" stroke="none">
<path d="M1023 2677 c-77 -27 -142 -80 -191 -155 -20 -32 -39 -59 -42 -62 -10
-10 -50 -69 -50 -75 0 -3 -16 -27 -35 -54 l-35 -48 -167 0 c-93 0 -186 -3
-208 -7 -67 -11 -146 -54 -193 -104 -37 -39 -75 -103 -74 -122 0 -3 -5 -11
-11 -19 -9 -10 -13 -201 -14 -720 -3 -765 -4 -753 52 -840 48 -77 118 -130
214 -160 23 -8 404 -11 1231 -11 1088 0 1201 2 1246 17 100 34 176 99 221 192
l28 56 0 725 0 725 -29 60 c-50 101 -128 166 -236 195 -27 8 -109 12 -210 12
-91 0 -172 2 -181 4 -9 3 -58 67 -108 144 -102 153 -146 199 -230 239 l-56 26
-430 2 c-422 2 -431 2 -492 -20z m617 -481 c135 -19 315 -112 423 -219 62 -61
127 -145 127 -163 0 -7 4 -14 8 -16 21 -9 88 -185 99 -263 11 -72 9 -233 -4
-284 -7 -31 -15 -65 -17 -76 -8 -44 -60 -153 -103 -217 -41 -63 -115 -144
-175 -195 -75 -62 -261 -143 -363 -158 -70 -11 -214 -12 -250 -3 -16 4 -45 10
-63 13 -174 30 -379 169 -489 333 -43 65 -89 156 -99 198 -4 16 -9 34 -13 39
-21 36 -32 253 -18 352 10 70 35 144 77 226 160 317 492 484 860 433z m993
-217 c38 -21 56 -52 57 -97 0 -55 -41 -101 -92 -103 -190 -8 -246 17 -244 108
1 39 38 90 68 96 49 9 190 6 211 -4z"/>
<path d="M1405 1838 c-121 -25 -242 -116 -297 -223 -43 -82 -56 -138 -53 -226
4 -130 39 -214 127 -302 137 -138 347 -173 518 -85 271 138 332 498 120 710
-55 55 -149 111 -206 124 -46 10 -166 12 -209 2z"/>
</g>
</svg>
